# xmcd
#
# Track frame offsets:
#	150
#	20280
#	45506
#	84317
#	114227
#	130418
#	150836
#	172476
#	194415
#	223863
#	240346
#	258190
#
# Disc length: 3756 seconds
#
# Revision: 1
# Processed by: cddbd v1.5.2PL0 Copyright (c) Steve Scherf et al.
# Submitted via: audiograbber 1.83.01
#
DISCID=960eaa0c
DTITLE=Various (Dylan blues'd up) - All blues'd up - Songs of Bob Dylan
DYEAR=1900
DGENRE=
TTITLE0=All along the watchtower - Larry McCray
TTITLE1=Lay Lady lay - Isaac Hayes
TTITLE2=Ballad of a thin man - James Solberg
TTITLE3=Gotta serve somebody - Mavis Staples
TTITLE4=I'll be your baby tonight - John Hammond
TTITLE5=It takes a lot to laugh, it takes a lot to cry - Taj Mahal
TTITLE6=Pledging my time - Luther Johnson
TTITLE7=Everything is broken - R.L.Burnside
TTITLE8=Million miles - Alvin Hart
TTITLE9=Watching the river flow - Leon Russell
TTITLE10=Wallflower - The Holmes Borthers
TTITLE11=One too many mornings - The Band
EXTD=
EXTT0=
EXTT1=
EXTT2=
EXTT3=
EXTT4=
EXTT5=
EXTT6=
EXTT7=
EXTT8=
EXTT9=
EXTT10=
EXTT11=
PLAYORDER=
